<svg xmlns="http://www.w3.org/2000/svg" width="1600" height="1648" viewBox="0 0 1600 1648" role="img" aria-labelledby="title desc">
  <title id="title">iida-mcp tool matrix</title>
  <desc id="desc">A compact dark matrix listing all 77 iida-mcp tools grouped by capability area.</desc>
  <defs>
    <linearGradient id="edge" x1="0" y1="0" x2="1" y2="1">
      <stop offset="0" stop-color="#ffffff" stop-opacity=".42"/>
      <stop offset=".34" stop-color="#8ff4e5" stop-opacity=".32"/>
      <stop offset=".70" stop-color="#7f8cff" stop-opacity=".24"/>
      <stop offset="1" stop-color="#ffffff" stop-opacity=".08"/>
    </linearGradient>
    <linearGradient id="rule" x1="0" y1="0" x2="1" y2="0">
      <stop offset="0" stop-color="#ffffff" stop-opacity=".02"/>
      <stop offset=".5" stop-color="#8ff4e5" stop-opacity=".44"/>
      <stop offset="1" stop-color="#ffffff" stop-opacity=".02"/>
    </linearGradient>
    <style>
      .font { font-family: Inter, -apple-system, BlinkMacSystemFont, "SF Pro Display", "Segoe UI", Arial, sans-serif; }
      .bg { fill: #000; }
      .cell { fill: #070707; stroke: url(#edge); stroke-width: 1; }
      .title { fill: #f2f5f8; }
      .muted { fill: #737b85; }
      .section { fill: #8b949f; font-size: 11px; font-weight: 680; letter-spacing: .9px; }
      .tool { fill: #e4eaf0; font-size: 12px; font-weight: 660; }
      .hint { fill: #88929d; font-size: 10.5px; font-weight: 520; }
    </style>
  </defs>

  <rect width="1600" height="1648" class="bg"/>
  <g class="font">
    <text x="102" y="76" class="title" font-size="32" font-weight="700">iida-mcp tool matrix</text>
    <text x="1498" y="76" class="muted" font-size="15" text-anchor="end">77 actual tools from TOOLS_SCHEMA</text>
    <g transform="translate(102 124)">
      <line x1="0" y1="0" x2="1380" y2="0" stroke="url(#rule)" stroke-width="1"/>
      <text x="0" y="16" class="section">FILE / SESSION</text>
    </g>
    <g transform="translate(102 150)" text-anchor="middle">
      <rect x="0" y="0" width="336" height="42" rx="8" class="cell"/>
      <text x="168" y="17"><tspan class="tool">list_files</tspan><tspan x="168" dy="16" class="hint">List connected IDA instances</tspan></text>
    </g>
    <g transform="translate(450 150)" text-anchor="middle">
      <rect x="0" y="0" width="336" height="42" rx="8" class="cell"/>
      <text x="168" y="17"><tspan class="tool">get_info</tspan><tspan x="168" dy="16" class="hint">IDB info: filename, paths, arch, bits, entry,...</tspan></text>
    </g>
    <g transform="translate(798 150)" text-anchor="middle">
      <rect x="0" y="0" width="336" height="42" rx="8" class="cell"/>
      <text x="168" y="17"><tspan class="tool">read_file_bytes</tspan><tspan x="168" dy="16" class="hint">Read raw original file bytes at file offset</tspan></text>
    </g>
    <g transform="translate(1146 150)" text-anchor="middle">
      <rect x="0" y="0" width="336" height="42" rx="8" class="cell"/>
      <text x="168" y="17"><tspan class="tool">addr_to_fileoff</tspan><tspan x="168" dy="16" class="hint">Convert IDB address to raw file offset</tspan></text>
    </g>
    <g transform="translate(102 200)" text-anchor="middle">
      <rect x="0" y="0" width="336" height="42" rx="8" class="cell"/>
      <text x="168" y="17"><tspan class="tool">parse_pe</tspan><tspan x="168" dy="16" class="hint">Parse PE header from raw file</tspan></text>
    </g>
    <g transform="translate(450 200)" text-anchor="middle">
      <rect x="0" y="0" width="336" height="42" rx="8" class="cell"/>
      <text x="168" y="17"><tspan class="tool">parse_elf</tspan><tspan x="168" dy="16" class="hint">Parse ELF header from raw file</tspan></text>
    </g>
    <g transform="translate(798 200)" text-anchor="middle">
      <rect x="0" y="0" width="336" height="42" rx="8" class="cell"/>
      <text x="168" y="17"><tspan class="tool">get_cursor</tspan><tspan x="168" dy="16" class="hint">Get the current IDA UI cursor address</tspan></text>
    </g>
    <g transform="translate(1146 200)" text-anchor="middle">
      <rect x="0" y="0" width="336" height="42" rx="8" class="cell"/>
      <text x="168" y="17"><tspan class="tool">get_cursor_func</tspan><tspan x="168" dy="16" class="hint">Get the function under the current IDA UI cursor</tspan></text>
    </g>
    <g transform="translate(102 264)">
      <line x1="0" y1="0" x2="1380" y2="0" stroke="url(#rule)" stroke-width="1"/>
      <text x="0" y="16" class="section">FUNCTIONS / DECOMPILER</text>
    </g>
    <g transform="translate(102 290)" text-anchor="middle">
      <rect x="0" y="0" width="336" height="42" rx="8" class="cell"/>
      <text x="168" y="17"><tspan class="tool">list_functions</tspan><tspan x="168" dy="16" class="hint">List functions (paginated, filterable)</tspan></text>
    </g>
    <g transform="translate(450 290)" text-anchor="middle">
      <rect x="0" y="0" width="336" height="42" rx="8" class="cell"/>
      <text x="168" y="17"><tspan class="tool">get_func_info</tspan><tspan x="168" dy="16" class="hint">Get function info: name, start, end, size, frame</tspan></text>
    </g>
    <g transform="translate(798 290)" text-anchor="middle">
      <rect x="0" y="0" width="336" height="42" rx="8" class="cell"/>
      <text x="168" y="17"><tspan class="tool">get_func_by_name</tspan><tspan x="168" dy="16" class="hint">Find a function by exact name</tspan></text>
    </g>
    <g transform="translate(1146 290)" text-anchor="middle">
      <rect x="0" y="0" width="336" height="42" rx="8" class="cell"/>
      <text x="168" y="17"><tspan class="tool">decompile</tspan><tspan x="168" dy="16" class="hint">Decompile function to pseudocode</tspan></text>
    </g>
    <g transform="translate(102 340)" text-anchor="middle">
      <rect x="0" y="0" width="336" height="42" rx="8" class="cell"/>
      <text x="168" y="17"><tspan class="tool">get_func_type</tspan><tspan x="168" dy="16" class="hint">Get function prototype/type declaration</tspan></text>
    </g>
    <g transform="translate(450 340)" text-anchor="middle">
      <rect x="0" y="0" width="336" height="42" rx="8" class="cell"/>
      <text x="168" y="17"><tspan class="tool">get_callers</tspan><tspan x="168" dy="16" class="hint">List functions that call this address</tspan></text>
    </g>
    <g transform="translate(798 340)" text-anchor="middle">
      <rect x="0" y="0" width="336" height="42" rx="8" class="cell"/>
      <text x="168" y="17"><tspan class="tool">get_callees</tspan><tspan x="168" dy="16" class="hint">List functions called by this function</tspan></text>
    </g>
    <g transform="translate(1146 340)" text-anchor="middle">
      <rect x="0" y="0" width="336" height="42" rx="8" class="cell"/>
      <text x="168" y="17"><tspan class="tool">get_vars</tspan><tspan x="168" dy="16" class="hint">List decompiled function variables and argume...</tspan></text>
    </g>
    <g transform="translate(102 390)" text-anchor="middle">
      <rect x="0" y="0" width="336" height="42" rx="8" class="cell"/>
      <text x="168" y="17"><tspan class="tool">disassemble</tspan><tspan x="168" dy="16" class="hint">Disassemble N instructions at address</tspan></text>
    </g>
    <g transform="translate(102 454)">
      <line x1="0" y1="0" x2="1380" y2="0" stroke="url(#rule)" stroke-width="1"/>
      <text x="0" y="16" class="section">READ / DATABASE</text>
    </g>
    <g transform="translate(102 480)" text-anchor="middle">
      <rect x="0" y="0" width="336" height="42" rx="8" class="cell"/>
      <text x="168" y="17"><tspan class="tool">read_bytes</tspan><tspan x="168" dy="16" class="hint">Read bytes from IDB at address</tspan></text>
    </g>
    <g transform="translate(450 480)" text-anchor="middle">
      <rect x="0" y="0" width="336" height="42" rx="8" class="cell"/>
      <text x="168" y="17"><tspan class="tool">read_value</tspan><tspan x="168" dy="16" class="hint">Read an integer value from IDB memory. size i...</tspan></text>
    </g>
    <g transform="translate(798 480)" text-anchor="middle">
      <rect x="0" y="0" width="336" height="42" rx="8" class="cell"/>
      <text x="168" y="17"><tspan class="tool">read_string</tspan><tspan x="168" dy="16" class="hint">Read a string literal from IDB at address</tspan></text>
    </g>
    <g transform="translate(1146 480)" text-anchor="middle">
      <rect x="0" y="0" width="336" height="42" rx="8" class="cell"/>
      <text x="168" y="17"><tspan class="tool">get_head</tspan><tspan x="168" dy="16" class="hint">Get item head address containing the given ad...</tspan></text>
    </g>
    <g transform="translate(102 530)" text-anchor="middle">
      <rect x="0" y="0" width="336" height="42" rx="8" class="cell"/>
      <text x="168" y="17"><tspan class="tool">get_name</tspan><tspan x="168" dy="16" class="hint">Get name/label at address</tspan></text>
    </g>
    <g transform="translate(450 530)" text-anchor="middle">
      <rect x="0" y="0" width="336" height="42" rx="8" class="cell"/>
      <text x="168" y="17"><tspan class="tool">set_name</tspan><tspan x="168" dy="16" class="hint">Set name/label at address</tspan></text>
    </g>
    <g transform="translate(798 530)" text-anchor="middle">
      <rect x="0" y="0" width="336" height="42" rx="8" class="cell"/>
      <text x="168" y="17"><tspan class="tool">get_comment</tspan><tspan x="168" dy="16" class="hint">Get comment at address</tspan></text>
    </g>
    <g transform="translate(1146 530)" text-anchor="middle">
      <rect x="0" y="0" width="336" height="42" rx="8" class="cell"/>
      <text x="168" y="17"><tspan class="tool">set_comment</tspan><tspan x="168" dy="16" class="hint">Set comment at address</tspan></text>
    </g>
    <g transform="translate(102 580)" text-anchor="middle">
      <rect x="0" y="0" width="336" height="42" rx="8" class="cell"/>
      <text x="168" y="17"><tspan class="tool">search_names</tspan><tspan x="168" dy="16" class="hint">Search all names/labels by substring</tspan></text>
    </g>
    <g transform="translate(450 580)" text-anchor="middle">
      <rect x="0" y="0" width="336" height="42" rx="8" class="cell"/>
      <text x="168" y="17"><tspan class="tool">list_globals</tspan><tspan x="168" dy="16" class="hint">List named non-function globals (paginated, f...</tspan></text>
    </g>
    <g transform="translate(798 580)" text-anchor="middle">
      <rect x="0" y="0" width="336" height="42" rx="8" class="cell"/>
      <text x="168" y="17"><tspan class="tool">read_global</tspan><tspan x="168" dy="16" class="hint">Read a named global value</tspan></text>
    </g>
    <g transform="translate(102 644)">
      <line x1="0" y1="0" x2="1380" y2="0" stroke="url(#rule)" stroke-width="1"/>
      <text x="0" y="16" class="section">TYPE SYSTEM</text>
    </g>
    <g transform="translate(102 670)" text-anchor="middle">
      <rect x="0" y="0" width="336" height="42" rx="8" class="cell"/>
      <text x="168" y="17"><tspan class="tool">get_type</tspan><tspan x="168" dy="16" class="hint">Get type info at address</tspan></text>
    </g>
    <g transform="translate(450 670)" text-anchor="middle">
      <rect x="0" y="0" width="336" height="42" rx="8" class="cell"/>
      <text x="168" y="17"><tspan class="tool">set_type</tspan><tspan x="168" dy="16" class="hint">Apply C type declaration at address</tspan></text>
    </g>
    <g transform="translate(798 670)" text-anchor="middle">
      <rect x="0" y="0" width="336" height="42" rx="8" class="cell"/>
      <text x="168" y="17"><tspan class="tool">set_c_decls</tspan><tspan x="168" dy="16" class="hint">Parse one or more C typedef/struct/enum decla...</tspan></text>
    </g>
    <g transform="translate(1146 670)" text-anchor="middle">
      <rect x="0" y="0" width="336" height="42" rx="8" class="cell"/>
      <text x="168" y="17"><tspan class="tool">list_types</tspan><tspan x="168" dy="16" class="hint">List local types. kind may be struct, enum, t...</tspan></text>
    </g>
    <g transform="translate(102 720)" text-anchor="middle">
      <rect x="0" y="0" width="336" height="42" rx="8" class="cell"/>
      <text x="168" y="17"><tspan class="tool">get_type_decl</tspan><tspan x="168" dy="16" class="hint">Get a local type declaration plus member deta...</tspan></text>
    </g>
    <g transform="translate(450 720)" text-anchor="middle">
      <rect x="0" y="0" width="336" height="42" rx="8" class="cell"/>
      <text x="168" y="17"><tspan class="tool">read_struct</tspan><tspan x="168" dy="16" class="hint">Read memory as an IDA struct and parse fields...</tspan></text>
    </g>
    <g transform="translate(798 720)" text-anchor="middle">
      <rect x="0" y="0" width="336" height="42" rx="8" class="cell"/>
      <text x="168" y="17"><tspan class="tool">delete_type</tspan><tspan x="168" dy="16" class="hint">Delete a local type by name: struct, enum, ty...</tspan></text>
    </g>
    <g transform="translate(1146 720)" text-anchor="middle">
      <rect x="0" y="0" width="336" height="42" rx="8" class="cell"/>
      <text x="168" y="17"><tspan class="tool">find_enum_value</tspan><tspan x="168" dy="16" class="hint">Find enum constants matching a numeric value,...</tspan></text>
    </g>
    <g transform="translate(102 784)">
      <line x1="0" y1="0" x2="1380" y2="0" stroke="url(#rule)" stroke-width="1"/>
      <text x="0" y="16" class="section">ANALYSIS GRAPH / SEARCH</text>
    </g>
    <g transform="translate(102 810)" text-anchor="middle">
      <rect x="0" y="0" width="336" height="42" rx="8" class="cell"/>
      <text x="168" y="17"><tspan class="tool">list_segments</tspan><tspan x="168" dy="16" class="hint">List all segments/sections</tspan></text>
    </g>
    <g transform="translate(450 810)" text-anchor="middle">
      <rect x="0" y="0" width="336" height="42" rx="8" class="cell"/>
      <text x="168" y="17"><tspan class="tool">get_segment_info</tspan><tspan x="168" dy="16" class="hint">Get segment info for address</tspan></text>
    </g>
    <g transform="translate(798 810)" text-anchor="middle">
      <rect x="0" y="0" width="336" height="42" rx="8" class="cell"/>
      <text x="168" y="17"><tspan class="tool">xrefs_to</tspan><tspan x="168" dy="16" class="hint">Get all cross-references TO this address</tspan></text>
    </g>
    <g transform="translate(1146 810)" text-anchor="middle">
      <rect x="0" y="0" width="336" height="42" rx="8" class="cell"/>
      <text x="168" y="17"><tspan class="tool">xrefs_from</tspan><tspan x="168" dy="16" class="hint">Get all cross-references FROM this address</tspan></text>
    </g>
    <g transform="translate(102 860)" text-anchor="middle">
      <rect x="0" y="0" width="336" height="42" rx="8" class="cell"/>
      <text x="168" y="17"><tspan class="tool">xrefs_to_field</tspan><tspan x="168" dy="16" class="hint">Find xrefs to a struct field by struct and fi...</tspan></text>
    </g>
    <g transform="translate(450 860)" text-anchor="middle">
      <rect x="0" y="0" width="336" height="42" rx="8" class="cell"/>
      <text x="168" y="17"><tspan class="tool">search_bytes</tspan><tspan x="168" dy="16" class="hint">Search for byte pattern (e.g. &#x27;48 8B ?? 90&#x27;)</tspan></text>
    </g>
    <g transform="translate(798 860)" text-anchor="middle">
      <rect x="0" y="0" width="336" height="42" rx="8" class="cell"/>
      <text x="168" y="17"><tspan class="tool">search_strings</tspan><tspan x="168" dy="16" class="hint">Search string list by substring</tspan></text>
    </g>
    <g transform="translate(1146 860)" text-anchor="middle">
      <rect x="0" y="0" width="336" height="42" rx="8" class="cell"/>
      <text x="168" y="17"><tspan class="tool">search_imm</tspan><tspan x="168" dy="16" class="hint">Search little-endian encoded immediate/value...</tspan></text>
    </g>
    <g transform="translate(102 910)" text-anchor="middle">
      <rect x="0" y="0" width="336" height="42" rx="8" class="cell"/>
      <text x="168" y="17"><tspan class="tool">list_imports</tspan><tspan x="168" dy="16" class="hint">List import table</tspan></text>
    </g>
    <g transform="translate(450 910)" text-anchor="middle">
      <rect x="0" y="0" width="336" height="42" rx="8" class="cell"/>
      <text x="168" y="17"><tspan class="tool">list_exports</tspan><tspan x="168" dy="16" class="hint">List export table</tspan></text>
    </g>
    <g transform="translate(798 910)" text-anchor="middle">
      <rect x="0" y="0" width="336" height="42" rx="8" class="cell"/>
      <text x="168" y="17"><tspan class="tool">list_entries</tspan><tspan x="168" dy="16" class="hint">List entry points</tspan></text>
    </g>
    <g transform="translate(1146 910)" text-anchor="middle">
      <rect x="0" y="0" width="336" height="42" rx="8" class="cell"/>
      <text x="168" y="17"><tspan class="tool">get_cfg</tspan><tspan x="168" dy="16" class="hint">Get function control flow graph as basic bloc...</tspan></text>
    </g>
    <g transform="translate(102 974)">
      <line x1="0" y1="0" x2="1380" y2="0" stroke="url(#rule)" stroke-width="1"/>
      <text x="0" y="16" class="section">MUTATION</text>
    </g>
    <g transform="translate(102 1000)" text-anchor="middle">
      <rect x="0" y="0" width="336" height="42" rx="8" class="cell"/>
      <text x="168" y="17"><tspan class="tool">patch_bytes</tspan><tspan x="168" dy="16" class="hint">Patch bytes in IDB at address (modifies datab...</tspan></text>
    </g>
    <g transform="translate(450 1000)" text-anchor="middle">
      <rect x="0" y="0" width="336" height="42" rx="8" class="cell"/>
      <text x="168" y="17"><tspan class="tool">patch_asm</tspan><tspan x="168" dy="16" class="hint">Assemble one or more instructions with keysto...</tspan></text>
    </g>
    <g transform="translate(798 1000)" text-anchor="middle">
      <rect x="0" y="0" width="336" height="42" rx="8" class="cell"/>
      <text x="168" y="17"><tspan class="tool">patch_list</tspan><tspan x="168" dy="16" class="hint">List all patched bytes in IDB</tspan></text>
    </g>
    <g transform="translate(1146 1000)" text-anchor="middle">
      <rect x="0" y="0" width="336" height="42" rx="8" class="cell"/>
      <text x="168" y="17"><tspan class="tool">bookmark_list</tspan><tspan x="168" dy="16" class="hint">List all bookmarks</tspan></text>
    </g>
    <g transform="translate(102 1050)" text-anchor="middle">
      <rect x="0" y="0" width="336" height="42" rx="8" class="cell"/>
      <text x="168" y="17"><tspan class="tool">bookmark_set</tspan><tspan x="168" dy="16" class="hint">Set bookmark at address</tspan></text>
    </g>
    <g transform="translate(450 1050)" text-anchor="middle">
      <rect x="0" y="0" width="336" height="42" rx="8" class="cell"/>
      <text x="168" y="17"><tspan class="tool">bookmark_delete</tspan><tspan x="168" dy="16" class="hint">Delete bookmark at address</tspan></text>
    </g>
    <g transform="translate(798 1050)" text-anchor="middle">
      <rect x="0" y="0" width="336" height="42" rx="8" class="cell"/>
      <text x="168" y="17"><tspan class="tool">reanalyze</tspan><tspan x="168" dy="16" class="hint">Trigger IDA auto-analysis and wait</tspan></text>
    </g>
    <g transform="translate(1146 1050)" text-anchor="middle">
      <rect x="0" y="0" width="336" height="42" rx="8" class="cell"/>
      <text x="168" y="17"><tspan class="tool">create_function</tspan><tspan x="168" dy="16" class="hint">Create function at address</tspan></text>
    </g>
    <g transform="translate(102 1100)" text-anchor="middle">
      <rect x="0" y="0" width="336" height="42" rx="8" class="cell"/>
      <text x="168" y="17"><tspan class="tool">delete_function</tspan><tspan x="168" dy="16" class="hint">Delete function at address</tspan></text>
    </g>
    <g transform="translate(450 1100)" text-anchor="middle">
      <rect x="0" y="0" width="336" height="42" rx="8" class="cell"/>
      <text x="168" y="17"><tspan class="tool">make_data</tspan><tspan x="168" dy="16" class="hint">Define data at address</tspan></text>
    </g>
    <g transform="translate(798 1100)" text-anchor="middle">
      <rect x="0" y="0" width="336" height="42" rx="8" class="cell"/>
      <text x="168" y="17"><tspan class="tool">undefine</tspan><tspan x="168" dy="16" class="hint">Undefine (make unknown) bytes at address</tspan></text>
    </g>
    <g transform="translate(1146 1100)" text-anchor="middle">
      <rect x="0" y="0" width="336" height="42" rx="8" class="cell"/>
      <text x="168" y="17"><tspan class="tool">rename_var</tspan><tspan x="168" dy="16" class="hint">Rename a decompiled local variable</tspan></text>
    </g>
    <g transform="translate(102 1150)" text-anchor="middle">
      <rect x="0" y="0" width="336" height="42" rx="8" class="cell"/>
      <text x="168" y="17"><tspan class="tool">retype_var</tspan><tspan x="168" dy="16" class="hint">Change type of a decompiled variable</tspan></text>
    </g>
    <g transform="translate(102 1214)">
      <line x1="0" y1="0" x2="1380" y2="0" stroke="url(#rule)" stroke-width="1"/>
      <text x="0" y="16" class="section">STACK FRAME</text>
    </g>
    <g transform="translate(102 1240)" text-anchor="middle">
      <rect x="0" y="0" width="336" height="42" rx="8" class="cell"/>
      <text x="168" y="17"><tspan class="tool">list_frame_vars</tspan><tspan x="168" dy="16" class="hint">List a function&#x27;s stack frame variables: [off...</tspan></text>
    </g>
    <g transform="translate(450 1240)" text-anchor="middle">
      <rect x="0" y="0" width="336" height="42" rx="8" class="cell"/>
      <text x="168" y="17"><tspan class="tool">create_frame_var</tspan><tspan x="168" dy="16" class="hint">Create a stack frame variable at byte offset</tspan></text>
    </g>
    <g transform="translate(798 1240)" text-anchor="middle">
      <rect x="0" y="0" width="336" height="42" rx="8" class="cell"/>
      <text x="168" y="17"><tspan class="tool">delete_frame_var</tspan><tspan x="168" dy="16" class="hint">Delete a stack frame variable by name</tspan></text>
    </g>
    <g transform="translate(1146 1240)" text-anchor="middle">
      <rect x="0" y="0" width="336" height="42" rx="8" class="cell"/>
      <text x="168" y="17"><tspan class="tool">rename_frame_var</tspan><tspan x="168" dy="16" class="hint">Rename a stack frame variable</tspan></text>
    </g>
    <g transform="translate(102 1290)" text-anchor="middle">
      <rect x="0" y="0" width="336" height="42" rx="8" class="cell"/>
      <text x="168" y="17"><tspan class="tool">retype_frame_var</tspan><tspan x="168" dy="16" class="hint">Change a stack frame variable type</tspan></text>
    </g>
    <g transform="translate(102 1354)">
      <line x1="0" y1="0" x2="1380" y2="0" stroke="url(#rule)" stroke-width="1"/>
      <text x="0" y="16" class="section">BATCH / TREES</text>
    </g>
    <g transform="translate(102 1380)" text-anchor="middle">
      <rect x="0" y="0" width="336" height="42" rx="8" class="cell"/>
      <text x="168" y="17"><tspan class="tool">batch</tspan><tspan x="168" dy="16" class="hint">Batch execute multiple tools in one call</tspan></text>
    </g>
    <g transform="translate(450 1380)" text-anchor="middle">
      <rect x="0" y="0" width="336" height="42" rx="8" class="cell"/>
      <text x="168" y="17"><tspan class="tool">get_func_by_addr</tspan><tspan x="168" dy="16" class="hint">Find which function contains the given addres...</tspan></text>
    </g>
    <g transform="translate(798 1380)" text-anchor="middle">
      <rect x="0" y="0" width="336" height="42" rx="8" class="cell"/>
      <text x="168" y="17"><tspan class="tool">call_tree</tspan><tspan x="168" dy="16" class="hint">Build forward call tree (recursive callees fr...</tspan></text>
    </g>
    <g transform="translate(1146 1380)" text-anchor="middle">
      <rect x="0" y="0" width="336" height="42" rx="8" class="cell"/>
      <text x="168" y="17"><tspan class="tool">callers_tree</tspan><tspan x="168" dy="16" class="hint">Build reverse call tree (recursive callers of...</tspan></text>
    </g>
    <g transform="translate(102 1444)">
      <line x1="0" y1="0" x2="1380" y2="0" stroke="url(#rule)" stroke-width="1"/>
      <text x="0" y="16" class="section">KERNEL DRIVER / STANDALONE</text>
    </g>
    <g transform="translate(102 1470)" text-anchor="middle">
      <rect x="0" y="0" width="336" height="42" rx="8" class="cell"/>
      <text x="168" y="17"><tspan class="tool">kernel_read</tspan><tspan x="168" dy="16" class="hint">Read kernel memory via iida-mcp-ioctl driver...</tspan></text>
    </g>
    <g transform="translate(450 1470)" text-anchor="middle">
      <rect x="0" y="0" width="336" height="42" rx="8" class="cell"/>
      <text x="168" y="17"><tspan class="tool">kernel_modules</tspan><tspan x="168" dy="16" class="hint">List all loaded kernel modules via driver. Re...</tspan></text>
    </g>
    <g transform="translate(798 1470)" text-anchor="middle">
      <rect x="0" y="0" width="336" height="42" rx="8" class="cell"/>
      <text x="168" y="17"><tspan class="tool">kernel_module_base</tspan><tspan x="168" dy="16" class="hint">Get kernel module base address and size by na...</tspan></text>
    </g>
    <g transform="translate(1146 1470)" text-anchor="middle">
      <rect x="0" y="0" width="336" height="42" rx="8" class="cell"/>
      <text x="168" y="17"><tspan class="tool">calc</tspan><tspan x="168" dy="16" class="hint">Integer calculator. Evaluate arithmetic expre...</tspan></text>
    </g>
    <g transform="translate(102 1520)" text-anchor="middle">
      <rect x="0" y="0" width="336" height="42" rx="8" class="cell"/>
      <text x="168" y="17"><tspan class="tool">disasm_bytes</tspan><tspan x="168" dy="16" class="hint">Disassemble raw hex bytes (no IDB needed). Re...</tspan></text>
    </g>
    <g transform="translate(450 1520)" text-anchor="middle">
      <rect x="0" y="0" width="336" height="42" rx="8" class="cell"/>
      <text x="168" y="17"><tspan class="tool">kernel_read_values</tspan><tspan x="168" dy="16" class="hint">Read kernel memory and interpret as typed val...</tspan></text>
    </g>
    <g transform="translate(798 1520)" text-anchor="middle">
      <rect x="0" y="0" width="336" height="42" rx="8" class="cell"/>
      <text x="168" y="17"><tspan class="tool">ida_to_runtime</tspan><tspan x="168" dy="16" class="hint">Convert IDA virtual address to runtime kernel...</tspan></text>
    </g>
  </g>
</svg>
